<!-- <svg xmlns="http://www.w3.org/2000/svg" width="20" height="17" viewBox="0 0 24 23">
  <path fill="current" d="M14.078 7.061l2.861 2.862-10.799 10.798-3.584.723.724-3.585 10.798-10.798zm0-2.829l-12.64 12.64-1.438 7.128 7.127-1.438 12.642-12.64-5.691-5.69zm7.105 4.277l2.817-2.82-5.691-5.689-2.816 2.817 5.69 5.692z"/>
</svg> -->
<svg  viewBox="0 0 20 20" fill="none" xmlns="http://www.w3.org/2000/svg">
<path fill-rule="evenodd" clip-rule="evenodd" d="M11.5127 0.883129C12.6878 -0.293747 14.5938 -0.294468 15.7697 0.881518L18.4984 3.61014C19.6643 4.7761 19.6764 6.66365 18.5255 7.84448L8.41506 18.2179C7.6425 19.0105 6.58289 19.4575 5.47645 19.4574L2.4628 19.4573C1.062 19.4573 -0.056689 18.2896 0.00222476 16.8889L0.131606 13.813C0.174857 12.7847 0.60222 11.8102 1.32913 11.0822L11.5127 0.883129ZM14.6092 2.04384C14.0746 1.5093 13.2083 1.50963 12.6742 2.04457L10.8531 3.86844L15.5395 8.55489L17.3501 6.69716C17.8733 6.16042 17.8678 5.30244 17.3378 4.77246L14.6092 2.04384ZM2.49057 12.2436L9.6925 5.03076L14.393 9.73124L7.23969 17.0706C6.77615 17.5461 6.14038 17.8143 5.47652 17.8143L2.46287 17.8142C1.99594 17.8141 1.62304 17.4249 1.64268 16.958L1.77206 13.8821C1.79801 13.2651 2.05443 12.6804 2.49057 12.2436ZM19.179 19.3772C19.6324 19.3772 20 19.0093 20 18.5556C20 18.1019 19.6324 17.734 19.179 17.734H12.4757C12.0223 17.734 11.6547 18.1019 11.6547 18.5556C11.6547 19.0093 12.0223 19.3772 12.4757 19.3772H19.179Z" fill="current"/>
</svg>
